<svg width="310" height="106" viewBox="0 0 310 106" fill="none" xmlns="http://www.w3.org/2000/svg">
<path d="M240.954 36.1772C240.954 36.1772 225.85 10.7176 223.513 7.70976C221.175 4.70294 198.662 1.88094 176.741 1.88795C154.818 1.89547 145.482 4.72798 140.08 7.20737C134.678 9.68626 76.6888 43.3228 74.1657 44.9146C71.6431 46.5075 67.2009 60.8419 67.2009 60.8419L67.363 73.0485L63.1074 73.05C60.9076 73.0505 58.2896 74.9543 57.2645 77.2985L55.8708 80.4851C54.8452 82.8303 55.7989 84.7312 57.9996 84.7297L75.2905 84.7241C81.5489 72.3587 95.4918 62.6005 107.317 62.5965C119.14 62.5929 124.553 72.3437 119.995 84.7091L218.983 84.6766C225.242 72.3107 239.186 62.5529 251.009 62.5489C262.834 62.5454 268.246 72.2961 263.69 84.662L289 84.654C291.202 84.653 293.819 82.7511 294.844 80.406L296.238 77.2194C297.263 74.8752 296.309 72.9728 294.108 72.9733L289.226 72.9748C294.866 66.0591 301.057 58.2247 302.036 55.9868C307.074 44.4674 240.954 36.1772 240.954 36.1772ZM109.682 35.798C123.133 25.2764 137.236 14.6225 140.471 12.8188C144.57 11.3312 148.203 8.6319 169.673 8.29179L157.652 35.782L109.682 35.798ZM163.998 35.78L176.031 8.26525C196.675 8.42803 214.881 11.0547 217.748 12.8914C218.978 14.7477 225.033 24.7013 229.846 35.7584L163.998 35.78Z" fill="#05035B"/>
<path d="M105.227 67.3766C95.8805 67.3796 84.8767 74.9986 79.7858 84.7238C79.4803 85.3068 79.1931 85.8974 78.9322 86.4934C74.317 97.0481 78.6046 105.602 88.5133 105.599C98.4187 105.596 110.19 97.0366 114.805 86.4819C115.067 85.8849 115.296 85.2953 115.5 84.7123C118.914 74.9876 114.572 67.3741 105.227 67.3766ZM103.787 85.7772C103.707 86.0096 103.616 86.2465 103.511 86.4849C101.802 90.3944 97.4415 93.565 93.7734 93.566C90.1043 93.5675 88.5161 90.3984 90.2256 86.4894C90.33 86.251 90.4442 86.0146 90.5683 85.7817C92.4658 82.2043 96.5193 79.4104 99.9641 79.4094C103.408 79.4079 105.019 82.1998 103.787 85.7772Z" fill="#05035B"/>
<path d="M248.919 67.329C239.572 67.332 228.57 74.951 223.479 84.6762C223.175 85.2593 222.886 85.8498 222.625 86.4459C218.01 97.0006 222.298 105.555 232.204 105.552C239.072 105.55 246.831 101.432 252.486 95.3917L255.925 91.0585C256.921 89.5749 257.799 88.0322 258.498 86.4343C258.759 85.8373 258.988 85.2472 259.194 84.6642C262.608 74.9395 258.264 67.3265 248.919 67.329ZM247.481 85.7301C247.401 85.9625 247.311 86.1989 247.206 86.4374C245.496 90.3473 241.136 93.5174 237.467 93.5184C233.798 93.5199 232.21 90.3518 233.919 86.4419C234.024 86.2034 234.139 85.967 234.263 85.7341C236.16 82.1568 240.213 79.3623 243.657 79.3613C247.102 79.3603 248.712 82.1523 247.481 85.7301Z" fill="#05035B"/>
<path d="M208.746 13.9904C203.567 13.9904 197.411 18.4638 194.997 23.9826C192.582 29.5013 194.822 33.9747 200.001 33.9747C205.18 33.9747 211.335 29.5013 213.75 23.9826C216.165 18.4638 213.924 13.9904 208.746 13.9904Z" fill="#05035B"/>
<path d="M111.499 11.6697H31.792V13.7219H111.499V11.6697Z" fill="#05035B"/>
<path d="M130.164 3.37506H50.457V5.4272H130.164V3.37506Z" fill="#05035B"/>
<path d="M95.4745 19.9639H1.91162V22.0161H95.4745V19.9639Z" fill="#05035B"/>
<path d="M80.1384 28.2586H19.3389V30.3107H80.1384V28.2586Z" fill="#05035B"/>
<path d="M60.7995 36.5533H0V38.6055H60.7995V36.5533Z" fill="#05035B"/>
<path d="M29.6854 78.652L30.1254 81.6949L35.4456 80.7923C36.5742 85.8428 33.9368 91.0735 29.2337 92.7841C24.4333 94.5287 19.24 91.9666 17.326 87.0419C17.4384 87.0048 17.5507 86.9703 17.6626 86.9297C19.9977 86.0807 21.9191 84.5274 23.2926 82.569C22.3793 83.3939 21.3147 84.0611 20.1128 84.4984C14.9656 86.3712 9.36987 83.4425 7.61196 77.9573C5.85594 72.4726 8.60513 66.508 13.7515 64.6362C16.1956 63.7477 18.7371 63.9525 20.925 64.9889C19.8647 64.1434 18.6774 63.4937 17.4167 63.0669C18.4381 60.4794 20.4437 58.3466 23.1323 57.3689C28.1278 55.5506 33.5617 58.3947 35.267 63.7191C35.8597 65.5694 35.9138 67.4728 35.5359 69.2489L30.1395 68.3223L29.6934 71.3651L39.5494 72.5082L52.2736 73.9843L52.4592 72.155L38.404 69.7413C39.1142 67.2504 39.1269 64.508 38.278 61.8563C36.1239 55.1314 29.2615 51.5385 22.9494 53.8341C19.0341 55.2576 16.2525 58.6136 15.2175 62.5621C13.5268 62.3512 11.767 62.5285 10.0486 63.1536C3.88699 65.3946 0.596322 72.5327 2.69876 79.0978C4.56054 84.9121 10.0246 88.3232 15.5286 87.4752C15.6189 87.8994 15.7293 88.3227 15.8642 88.7434C17.9154 95.1493 24.4502 98.5693 30.4624 96.3844C36.4731 94.1976 39.6834 87.2327 37.6322 80.8269C37.5908 80.6977 37.5448 80.5714 37.4996 80.4452L52.4517 77.9092L52.2693 76.083L39.8371 77.498L29.6854 78.652Z" fill="#05035B"/>
<path d="M228.946 7.95269C228.955 7.95319 228.966 7.95369 228.976 7.95369C229.221 7.95369 229.429 7.75033 229.445 7.48486C229.531 6.06084 229.208 4.91231 228.483 4.07132C227.362 2.77001 225.701 2.71842 225.631 2.71692C225.359 2.72443 225.158 2.9308 225.151 3.20729C225.146 3.48378 225.352 3.71268 225.612 3.71869C225.624 3.71869 226.938 3.75926 227.79 4.74852C228.335 5.38114 228.576 6.28023 228.506 7.42075C228.49 7.69674 228.686 7.93466 228.946 7.95269Z" fill="#05035B"/>
<path d="M231.499 7.82752C231.514 7.82903 231.531 7.83003 231.547 7.83003C231.785 7.83003 231.989 7.63819 232.015 7.38073C232.221 5.24996 231.808 3.50888 230.785 2.20507C229.228 0.221055 226.838 0.00917938 226.737 0.00166607C226.48 -0.0208738 226.253 0.187996 226.233 0.463985C226.214 0.739973 226.408 0.979898 226.667 1.00043C226.688 1.00244 228.759 1.18476 230.064 2.84771C230.918 3.93563 231.26 5.42577 231.08 7.27805C231.052 7.55254 231.24 7.79897 231.499 7.82752Z" fill="#05035B"/>
<path d="M303.564 48.4454C303.293 48.4389 303.091 48.6593 303.085 48.9358C303.079 49.2122 303.285 49.4412 303.545 49.4472C303.557 49.4472 304.872 49.4877 305.724 50.4775C306.268 51.1096 306.509 52.0087 306.44 53.1497C306.423 53.4257 306.619 53.6636 306.879 53.6822C306.889 53.6827 306.899 53.6832 306.909 53.6832C307.155 53.6832 307.362 53.4798 307.378 53.2143C307.464 51.7903 307.14 50.6413 306.416 49.8003C305.296 48.499 303.635 48.4469 303.564 48.4454Z" fill="#05035B"/>
<path d="M304.67 45.7301C304.41 45.7075 304.187 45.9159 304.167 46.1914C304.147 46.4669 304.341 46.7068 304.599 46.7288C304.62 46.7308 306.706 46.9247 308.003 48.5836C308.853 49.6705 309.192 51.1587 309.012 53.0059C308.986 53.2809 309.174 53.5269 309.432 53.5559C309.448 53.5574 309.465 53.5584 309.481 53.5584C309.719 53.5584 309.923 53.3666 309.948 53.1091C310.155 50.9784 309.741 49.2373 308.719 47.934C307.161 45.9494 304.771 45.7381 304.67 45.7301Z" fill="#05035B"/>
<path d="M217.089 92.5331C217.075 92.5316 215.751 92.3974 214.964 91.3601C214.459 90.6954 214.27 89.7848 214.402 88.6548C214.434 88.3803 214.252 88.1303 213.994 88.0963C213.735 88.0592 213.501 88.2566 213.47 88.5315C213.304 89.9476 213.563 91.1141 214.241 92.0002C215.287 93.3691 216.943 93.5254 217.012 93.5319C217.025 93.5329 217.038 93.5334 217.05 93.5334C217.293 93.5334 217.497 93.3356 217.518 93.0741C217.539 92.7986 217.347 92.5567 217.089 92.5331Z" fill="#05035B"/>
<path d="M215.884 95.1798C215.863 95.1768 213.791 94.8522 212.588 93.1142C211.801 91.9756 211.544 90.469 211.826 88.6362C211.868 88.3632 211.694 88.1058 211.438 88.0612C211.181 88.0156 210.94 88.201 210.898 88.4749C210.574 90.5892 210.89 92.3533 211.839 93.7187C213.284 95.7974 215.658 96.159 215.758 96.1731C215.779 96.1761 215.801 96.1776 215.821 96.1776C216.053 96.1776 216.254 95.9958 216.286 95.7443C216.32 95.4703 216.141 95.2179 215.884 95.1798Z" fill="#05035B"/>
<path d="M73.0565 92.5331C73.0433 92.5316 71.7188 92.3974 70.9315 91.3601C70.4272 90.6954 70.2377 89.7853 70.3703 88.6553C70.4023 88.3803 70.2199 88.1303 69.9623 88.0963C69.7029 88.0592 69.4693 88.2566 69.4378 88.531C69.2718 89.947 69.5313 91.1141 70.2081 92.0002C71.2544 93.3691 72.9103 93.5254 72.9799 93.5319C72.9926 93.5329 73.0057 93.5334 73.018 93.5334C73.26 93.5334 73.4645 93.3356 73.4852 93.0741C73.5068 92.7986 73.3145 92.5567 73.0565 92.5331Z" fill="#05035B"/>
<path d="M71.8502 95.1798C71.8295 95.1768 69.7727 94.8643 68.5619 93.1222C67.7699 91.9832 67.5118 90.4735 67.7939 88.6362C67.8357 88.3632 67.6622 88.1058 67.4056 88.0612C67.1471 88.0156 66.9078 88.201 66.866 88.4749C66.5417 90.5892 66.8576 92.3533 67.8065 93.7187C69.2514 95.7974 71.6251 96.159 71.7256 96.1731C71.7468 96.1761 71.7679 96.1776 71.7886 96.1776C72.0203 96.1776 72.2225 95.9953 72.254 95.7433C72.2883 95.4688 72.1078 95.2164 71.8502 95.1798Z" fill="#05035B"/>
</svg>
